<?xml version="1.0" encoding="utf-8"?>
<svg version="1.1" id="Layer_1" xmlns="http://www.w3.org/2000/svg" xmlns:xlink="http://www.w3.org/1999/xlink" x="0px" y="0px"
	 viewBox="0 0 155 155" xml:space="preserve">
<style type="text/css">
	.st0{fill:#E86926;}
</style>
<g>
	<g>
		<path class="st0" d="M41.2,116.4c6,2.9,12.5,4.4,19.3,4.4c11.9,0,23.2-4.7,31.6-13.1c8.4-8.4,13-19.6,13.1-31.4c0,0,0,0,0,0
			c0,0,0-0.1,0-0.1c0,0,0-0.1,0-0.1c0,0,0-24.9,0-24.9C115.4,62.4,121,76.7,121,91.8c-0.1,16.1-6.3,31.2-17.7,42.5
			c-11.4,11.4-26.6,17.7-42.8,17.7c-6.7,0-13.2-1.1-19.3-3.1L41.2,116.4z"/>
		<path class="st0" d="M60.5,95.4c-5.2,0-10-2-13.7-5.7c-3.6-3.6-5.6-8.5-5.7-13.6c0-5.1,2-10,5.7-13.6C50.5,59,55.3,57,60.5,57
			c5.2,0,10,2,13.7,5.7c3.6,3.6,5.6,8.5,5.7,13.6c0,5.1-2,10-5.7,13.6C70.5,93.4,65.7,95.4,60.5,95.4"/>
		<path class="st0" d="M79.8,36c-6-2.9-12.5-4.4-19.3-4.4c-11.9,0-23.2,4.7-31.6,13.1c-8.4,8.4-13,19.6-13.1,31.4c0,0,0,0,0,0
			c0,0,0,0.1,0,0.1c0,0,0,0.1,0,0.1c0,0,0,24.9,0,24.9C5.6,90,0,75.7,0,60.6C0,44.5,6.3,29.4,17.7,18C29.1,6.6,44.3,0.3,60.5,0.3
			c6.7,0,13.2,1.1,19.3,3.1L79.8,36z"/>
	</g>
</g>
</svg>
